<svg width="41" height="35" viewBox="0 0 41 35" fill="none" xmlns="http://www.w3.org/2000/svg">
<g filter="url(#filter0_i_130_1139)">
<path fill-rule="evenodd" clip-rule="evenodd" d="M12.7529 1.55456C14.7567 1.47581 15.3957 1.45831 20.5002 1.45831C25.6047 1.45831 26.2436 1.47727 28.2457 1.55456C30.2479 1.63185 31.6146 1.90456 32.8104 2.29977C34.0626 2.70373 35.1987 3.33519 36.1382 4.15185C37.0949 4.95248 37.8329 5.92081 38.3044 6.99123C38.7691 8.01206 39.0868 9.17873 39.1791 10.885C39.2713 12.5985 39.2918 13.1439 39.2918 17.5C39.2918 21.8575 39.2696 22.4029 39.1791 24.1135C39.0885 25.8198 38.7691 26.9864 38.3044 28.0073C37.8329 29.0778 37.0937 30.0478 36.1382 30.8496C35.1987 31.6662 34.0626 32.2962 32.8104 32.6987C31.6146 33.0954 30.2479 33.3666 28.2492 33.4454C26.2436 33.5241 25.6047 33.5416 20.5002 33.5416C15.3957 33.5416 14.7567 33.5227 12.7529 33.4454C10.7541 33.3681 9.38745 33.0954 8.19162 32.6987C6.93757 32.2962 5.80136 31.6651 4.86208 30.8496C3.90606 30.0485 3.16624 29.079 2.6942 28.0087C2.23125 26.9879 1.9135 25.8212 1.82125 24.115C1.729 22.4014 1.7085 21.856 1.7085 17.5C1.7085 13.1425 1.7307 12.5971 1.82125 10.8879C1.91179 9.17873 2.23125 8.01206 2.6942 6.99123C3.16694 5.92093 3.90732 4.95148 4.86379 4.1504C5.80173 3.33446 6.9368 2.70292 8.18991 2.29977C9.38575 1.90456 10.7524 1.63331 12.7512 1.55456H12.7529ZM28.0937 4.44206C26.112 4.36477 25.5175 4.34873 20.5002 4.34873C15.4828 4.34873 14.8883 4.36477 12.9066 4.44206C11.0736 4.51352 10.0793 4.77456 9.4165 4.99477C8.54012 5.28644 7.91316 5.63206 7.25545 6.19352C6.63199 6.7113 6.15218 7.34164 5.8512 8.03831C5.59325 8.60415 5.28745 9.4529 5.20375 11.0177C5.1132 12.7094 5.09441 13.2169 5.09441 17.5C5.09441 21.7831 5.1132 22.2906 5.20375 23.9823C5.28745 25.5471 5.59325 26.3958 5.8512 26.9616C6.15187 27.6573 6.63191 28.2887 7.25545 28.8064C7.86191 29.3387 8.60162 29.7485 9.4165 30.0052C10.0793 30.2254 11.0736 30.4864 12.9066 30.5579C14.8883 30.6352 15.4811 30.6512 20.5002 30.6512C25.5192 30.6512 26.112 30.6352 28.0937 30.5579C29.9267 30.4864 30.921 30.2254 31.5838 30.0052C32.4602 29.7135 33.0872 29.3679 33.7449 28.8064C34.3684 28.2887 34.8485 27.6573 35.1491 26.9616C35.4071 26.3958 35.7129 25.5471 35.7966 23.9823C35.8871 22.2906 35.9059 21.7831 35.9059 17.5C35.9059 13.2169 35.8871 12.7094 35.7966 11.0177C35.7129 9.4529 35.4071 8.60415 35.1491 8.03831C34.8075 7.29019 34.4026 6.75498 33.7449 6.19352C33.1383 5.66133 32.3999 5.25174 31.5838 4.99477C30.921 4.77456 29.9267 4.51352 28.0937 4.44206ZM18.1 22.4452C19.4404 22.9215 20.933 22.9858 22.3228 22.6271C23.7126 22.2683 24.9135 21.5088 25.7202 20.4783C26.5269 19.4477 26.8894 18.21 26.7459 16.9766C26.6024 15.7432 25.9617 14.5906 24.9333 13.7156C24.2777 13.1563 23.485 12.728 22.6122 12.4617C21.7395 12.1953 20.8084 12.0974 19.886 12.175C18.9636 12.2527 18.0729 12.504 17.2779 12.9108C16.4829 13.3176 15.8035 13.8698 15.2886 14.5277C14.7736 15.1855 14.4359 15.9327 14.2998 16.7153C14.1637 17.498 14.2325 18.2967 14.5014 19.0539C14.7703 19.8111 15.2325 20.508 15.8547 21.0944C16.477 21.6808 17.2438 22.1421 18.1 22.4452ZM13.6702 11.6696C14.5672 10.9039 15.632 10.2965 16.8038 9.88217C17.9757 9.4678 19.2317 9.25452 20.5002 9.25452C21.7686 9.25452 23.0246 9.4678 24.1965 9.88217C25.3684 10.2965 26.4332 10.9039 27.3301 11.6696C28.227 12.4352 28.9385 13.3442 29.4239 14.3446C29.9093 15.345 30.1591 16.4172 30.1591 17.5C30.1591 18.5828 29.9093 19.655 29.4239 20.6554C28.9385 21.6558 28.227 22.5647 27.3301 23.3304C25.5187 24.8767 23.0619 25.7454 20.5002 25.7454C17.9384 25.7454 15.4817 24.8767 13.6702 23.3304C11.8588 21.7841 10.8412 19.6868 10.8412 17.5C10.8412 15.3131 11.8588 13.2159 13.6702 11.6696ZM32.3013 10.4825C32.5236 10.3035 32.7015 10.0883 32.8246 9.84952C32.9477 9.61079 33.0134 9.35339 33.0178 9.09259C33.0223 8.83178 32.9654 8.57286 32.8505 8.33116C32.7357 8.08946 32.5651 7.86989 32.3491 7.68545C32.133 7.50102 31.8758 7.35546 31.5927 7.2574C31.3096 7.15934 31.0063 7.11078 30.7007 7.11458C30.3952 7.11838 30.0937 7.17447 29.814 7.27954C29.5344 7.3846 29.2822 7.53649 29.0726 7.72623C28.6648 8.09523 28.4416 8.58536 28.4502 9.09259C28.4589 9.59981 28.6988 10.0842 29.119 10.4429C29.5392 10.8016 30.1066 11.0064 30.7007 11.0137C31.2949 11.0211 31.8691 10.8306 32.3013 10.4825Z" fill="#F15BB5"/>
</g>
<defs>
<filter id="filter0_i_130_1139" x="0" y="0" width="41" height="39" filterUnits="userSpaceOnUse" color-interpolation-filters="sRGB">
<feFlood flood-opacity="0" result="BackgroundImageFix"/>
<feBlend mode="normal" in="SourceGraphic" in2="BackgroundImageFix" result="shape"/>
<feColorMatrix in="SourceAlpha" type="matrix" values="0 0 0 0 0 0 0 0 0 0 0 0 0 0 0 0 0 0 127 0" result="hardAlpha"/>
<feOffset dy="4"/>
<feGaussianBlur stdDeviation="7.5"/>
<feComposite in2="hardAlpha" operator="arithmetic" k2="-1" k3="1"/>
<feColorMatrix type="matrix" values="0 0 0 0 0 0 0 0 0 0 0 0 0 0 0 0 0 0 0.2 0"/>
<feBlend mode="normal" in2="shape" result="effect1_innerShadow_130_1139"/>
</filter>
</defs>
</svg>
