<svg width="42" height="30" viewBox="0 0 42 30" fill="none" xmlns="http://www.w3.org/2000/svg">
<path fill-rule="evenodd" clip-rule="evenodd" d="M11.4207 0.0173779C10.3328 0.130171 9.33845 0.437265 8.37311 0.958538C4.53182 3.03283 1.45644 8.37003 0.390846 14.8115C0.197546 15.98 0.0900978 16.9808 0.0236765 18.2311C-0.0226865 19.104 0.00226847 20.8554 0.0704476 21.511C0.35368 24.2346 1.14697 26.3058 2.47213 27.7815C3.24442 28.6416 4.10491 29.2265 5.13915 29.5947C5.94468 29.8815 6.67146 30.0001 7.62251 30C9.44652 29.9998 10.7815 29.5014 12.1935 28.2936C12.8529 27.7295 13.8602 26.5725 14.6019 25.5272C15.917 23.6738 16.7693 22.1908 19.5019 17.0001L21.0061 14.1431L21.3329 14.722C21.7569 15.4731 23.2691 18.1859 24.1861 19.8403C26.478 23.9756 27.8082 25.9931 29.2394 27.5042C30.6638 29.0081 31.9882 29.7286 33.7345 29.9496C34.2018 30.0087 35.1636 30.0164 35.6074 29.9646C36.8155 29.8234 37.8974 29.3797 38.7902 28.6593C39.0913 28.4163 39.6522 27.8315 39.9004 27.5016C40.9195 26.1478 41.6048 24.2064 41.8663 21.9328C42.0646 20.2092 42.0414 18.0385 41.8025 15.959C41.1115 9.94492 38.6691 4.69824 35.2886 1.96568C33.2605 0.326362 30.9465 -0.319922 28.7842 0.149071C26.5138 0.641522 24.3066 2.46231 21.9545 5.78334C21.7836 6.02466 21.6266 6.24248 21.6056 6.26735C21.5746 6.30411 21.5019 6.2255 21.2189 5.84929C18.139 1.75444 15.3608 -0.029636 12.1115 0.000570467C11.792 0.00354049 11.4811 0.0111003 11.4207 0.0173779ZM30.8197 3.95992C31.9177 4.22293 32.9151 4.86901 33.8833 5.94446C34.5381 6.67182 35.058 7.43724 35.5619 8.41586C36.8984 11.0115 37.6749 14.078 37.9507 17.8491C38.0118 18.6849 38.0026 20.7735 37.9354 21.3085C37.6616 23.4898 36.907 24.6959 35.5976 25.0452C35.227 25.1441 34.5299 25.1508 34.1628 25.0591C33.1901 24.8161 32.5055 24.2003 31.3439 22.5235C30.5005 21.306 28.7004 18.2604 26.676 14.6259C25.1373 11.8632 24.6193 10.9661 23.8438 9.72095L23.6266 9.37231L23.9862 8.79282C25.818 5.84045 27.3946 4.32627 29.0329 3.94611C29.2891 3.88664 29.4129 3.87918 29.9565 3.89049C30.3883 3.89943 30.6578 3.92114 30.8197 3.95992ZM12.7077 4.96024C13.938 5.14387 14.9862 5.78624 16.225 7.1157C16.9586 7.90306 17.6628 8.81729 18.5027 10.0727L18.8567 10.6018L18.7533 10.7745C18.6964 10.8694 18.2924 11.5394 17.8554 12.2634C16.789 14.0301 15.8442 15.6115 14.8104 17.3597C13.6965 19.2433 13.4048 19.7224 12.7763 20.701C10.9827 23.4938 9.91992 24.6314 8.77387 24.9853C7.90132 25.2548 7.00378 25.1555 6.29914 24.7114C6.0375 24.5465 5.60743 24.0935 5.41058 23.7754C4.97753 23.0757 4.69611 22.1272 4.57347 20.9541C4.52265 20.468 4.52287 18.858 4.57388 18.1697C4.92542 13.4239 6.44799 9.10265 8.60938 6.71627C9.6127 5.60855 10.5432 5.05987 11.6718 4.91053C11.828 4.88987 12.4296 4.91876 12.7077 4.96024Z" fill="#F15BB5"/>
<path d="M25.5045 12.5544C20.1848 3.25748 16.6428 0 12.0732 0L12.0156 4.88472C15.0075 4.88472 17.3275 7.41988 22.3727 16.5501L22.6803 17.1059L25.5045 12.5544Z" fill="#F15BB5"/>
</svg>
