<svg width="47" height="36" viewBox="0 0 47 36" fill="none" xmlns="http://www.w3.org/2000/svg">
<path fill-rule="evenodd" clip-rule="evenodd" d="M12.7803 0.0210975C11.5629 0.156449 10.4502 0.524959 9.36991 1.15048C5.07132 3.63961 1.62983 10.0442 0.437375 17.774C0.221063 19.1761 0.100824 20.3771 0.0264952 21.8774C-0.0253873 22.9249 0.00253852 25.0266 0.0788342 25.8132C0.395785 29.0815 1.28351 31.567 2.76643 33.3378C3.63066 34.3699 4.59359 35.0719 5.75096 35.5137C6.65238 35.8578 7.46568 36.0001 8.52995 36C10.5711 35.9998 12.0651 35.4017 13.6451 33.9523C14.383 33.2754 15.5102 31.887 16.3402 30.6327C17.8119 28.4087 18.7656 26.629 21.8236 20.4003L23.5068 16.9719L23.8725 17.6665C24.3471 18.5679 26.0393 21.8232 27.0654 23.8085C29.6301 28.7708 31.1187 31.1917 32.7203 33.0051C34.3143 34.8097 35.7963 35.6743 37.7505 35.9395C38.2735 36.0105 39.3497 36.0197 39.8464 35.9575C41.1983 35.7881 42.409 35.2556 43.4081 34.3911C43.745 34.0996 44.3727 33.3978 44.6505 33.002C45.7908 31.3774 46.5578 29.0477 46.8504 26.3195C47.0723 24.2511 47.0464 21.6463 46.779 19.151C46.0057 11.9341 43.2726 5.63809 39.4896 2.35904C37.2201 0.391875 34.6306 -0.38366 32.2109 0.179129C29.6702 0.770065 27.2003 2.955 24.5681 6.94021C24.3769 7.22978 24.2012 7.49117 24.1777 7.52102C24.143 7.56512 24.0616 7.4708 23.745 7.01934C20.2984 2.10555 17.1895 -0.0353188 13.5533 0.000928697C13.1958 0.0044927 12.8479 0.0135644 12.7803 0.0210975ZM34.4888 4.75211C35.7174 5.06773 36.8335 5.84302 37.917 7.13355C38.6498 8.00637 39.2316 8.92487 39.7955 10.0992C41.291 13.2139 42.16 16.8938 42.4686 21.419C42.537 22.422 42.5267 24.9282 42.4515 25.5702C42.1451 28.1878 41.3007 29.6351 39.8354 30.0543C39.4207 30.1729 38.6406 30.181 38.2298 30.071C37.1413 29.7794 36.3752 29.0404 35.0753 27.0282C34.1315 25.5672 32.1171 21.9126 29.8518 17.5512C28.1298 14.236 27.5501 13.1595 26.6823 11.6653L26.4393 11.2469L26.8417 10.5516C28.8915 7.00873 30.6559 5.19174 32.4892 4.73555C32.7759 4.66418 32.9144 4.65523 33.5228 4.6688C34.006 4.67953 34.3076 4.70558 34.4888 4.75211ZM14.2205 5.95249C15.5973 6.17285 16.7703 6.94369 18.1565 8.53903C18.9775 9.48385 19.7656 10.5809 20.7054 12.0874L21.1015 12.7224L20.9858 12.9295C20.9222 13.0435 20.4701 13.8475 19.9811 14.7162C18.7877 16.8363 17.7304 18.7339 16.5735 20.8317C15.327 23.092 15.0007 23.667 14.2973 24.8412C12.2901 28.1926 11.1009 29.5577 9.81838 29.9824C8.84195 30.3058 7.83757 30.1866 7.04904 29.6538C6.75626 29.4559 6.27498 28.9123 6.0547 28.5305C5.57009 27.6908 5.25518 26.5527 5.11793 25.145C5.06106 24.5617 5.06131 22.6297 5.11839 21.8037C5.51178 16.1088 7.21561 10.9233 9.63431 8.05971C10.7571 6.73046 11.7983 6.07205 13.0613 5.89283C13.2361 5.86805 13.9093 5.90272 14.2205 5.95249Z" fill="url(#paint0_linear_114_527)"/>
<path fill-rule="evenodd" clip-rule="evenodd" d="M12.7803 0.0210975C11.5629 0.156449 10.4502 0.524959 9.36991 1.15048C5.07132 3.63961 1.62983 10.0442 0.437375 17.774C0.221063 19.1761 0.100824 20.3771 0.0264952 21.8774C-0.0253873 22.9249 0.00253852 25.0266 0.0788342 25.8132C0.395785 29.0815 1.28351 31.567 2.76643 33.3378C3.63066 34.3699 4.59359 35.0719 5.75096 35.5137C6.65238 35.8578 7.46568 36.0001 8.52995 36C10.5711 35.9998 12.0651 35.4017 13.6451 33.9523C14.383 33.2754 15.5102 31.887 16.3402 30.6327C17.8119 28.4087 18.7656 26.629 21.8236 20.4003L23.5068 16.9719L23.8725 17.6665C24.3471 18.5679 26.0393 21.8232 27.0654 23.8085C29.6301 28.7708 31.1187 31.1917 32.7203 33.0051C34.3143 34.8097 35.7963 35.6743 37.7505 35.9395C38.2735 36.0105 39.3497 36.0197 39.8464 35.9575C41.1983 35.7881 42.409 35.2556 43.4081 34.3911C43.745 34.0996 44.3727 33.3978 44.6505 33.002C45.7908 31.3774 46.5578 29.0477 46.8504 26.3195C47.0723 24.2511 47.0464 21.6463 46.779 19.151C46.0057 11.9341 43.2726 5.63809 39.4896 2.35904C37.2201 0.391875 34.6306 -0.38366 32.2109 0.179129C29.6702 0.770065 27.2003 2.955 24.5681 6.94021C24.3769 7.22978 24.2012 7.49117 24.1777 7.52102C24.143 7.56512 24.0616 7.4708 23.745 7.01934C20.2984 2.10555 17.1895 -0.0353188 13.5533 0.000928697C13.1958 0.0044927 12.8479 0.0135644 12.7803 0.0210975ZM34.4888 4.75211C35.7174 5.06773 36.8335 5.84302 37.917 7.13355C38.6498 8.00637 39.2316 8.92487 39.7955 10.0992C41.291 13.2139 42.16 16.8938 42.4686 21.419C42.537 22.422 42.5267 24.9282 42.4515 25.5702C42.1451 28.1878 41.3007 29.6351 39.8354 30.0543C39.4207 30.1729 38.6406 30.181 38.2298 30.071C37.1413 29.7794 36.3752 29.0404 35.0753 27.0282C34.1315 25.5672 32.1171 21.9126 29.8518 17.5512C28.1298 14.236 27.5501 13.1595 26.6823 11.6653L26.4393 11.2469L26.8417 10.5516C28.8915 7.00873 30.6559 5.19174 32.4892 4.73555C32.7759 4.66418 32.9144 4.65523 33.5228 4.6688C34.006 4.67953 34.3076 4.70558 34.4888 4.75211ZM14.2205 5.95249C15.5973 6.17285 16.7703 6.94369 18.1565 8.53903C18.9775 9.48385 19.7656 10.5809 20.7054 12.0874L21.1015 12.7224L20.9858 12.9295C20.9222 13.0435 20.4701 13.8475 19.9811 14.7162C18.7877 16.8363 17.7304 18.7339 16.5735 20.8317C15.327 23.092 15.0007 23.667 14.2973 24.8412C12.2901 28.1926 11.1009 29.5577 9.81838 29.9824C8.84195 30.3058 7.83757 30.1866 7.04904 29.6538C6.75626 29.4559 6.27498 28.9123 6.0547 28.5305C5.57009 27.6908 5.25518 26.5527 5.11793 25.145C5.06106 24.5617 5.06131 22.6297 5.11839 21.8037C5.51178 16.1088 7.21561 10.9233 9.63431 8.05971C10.7571 6.73046 11.7983 6.07205 13.0613 5.89283C13.2361 5.86805 13.9093 5.90272 14.2205 5.95249Z" fill="url(#paint1_radial_114_527)"/>
<path d="M28.5393 15.0651C22.5863 3.90891 18.6226 0 13.509 0L13.4446 5.86157C16.7927 5.86157 19.3888 8.90371 25.0347 19.8598L25.3789 20.5268L28.5393 15.0651Z" fill="url(#paint2_linear_114_527)"/>
<defs>
<linearGradient id="paint0_linear_114_527" x1="5.38407" y1="3.71192" x2="50.1482" y2="28.2641" gradientUnits="userSpaceOnUse">
<stop stop-color="#3182F3"/>
<stop offset="0.13599" stop-color="#0164E0"/>
<stop offset="0.559391" stop-color="#0869E1"/>
<stop offset="0.96875" stop-color="#307FEF"/>
</linearGradient>
<radialGradient id="paint1_radial_114_527" cx="0" cy="0" r="1" gradientUnits="userSpaceOnUse" gradientTransform="translate(23.497 13.269) rotate(90) scale(19.3652 25.2826)">
<stop stop-color="#3183F3"/>
<stop offset="1" stop-color="#3183F3"/>
</radialGradient>
<linearGradient id="paint2_linear_114_527" x1="14.456" y1="2.51031" x2="28.9374" y2="15.4956" gradientUnits="userSpaceOnUse">
<stop stop-color="#3183F3"/>
<stop offset="0.660785" stop-color="#2669D9"/>
<stop offset="1" stop-color="#3183F3"/>
</linearGradient>
</defs>
</svg>
