<svg width="200" height="200" viewBox="0 0 200 200" fill="none" xmlns="http://www.w3.org/2000/svg">
<circle cx="100" cy="100" r="100" fill="#FEF3ED"/>
<path d="M76.44 99.8C81.32 100.84 85.24 103.28 88.2 107.12C91.16 110.88 92.64 115.2 92.64 120.08C92.64 127.12 90.16 132.72 85.2 136.88C80.32 140.96 73.48 143 64.68 143H25.44V58.76H63.36C71.92 58.76 78.6 60.72 83.4 64.64C88.28 68.56 90.72 73.88 90.72 80.6C90.72 85.56 89.4 89.68 86.76 92.96C84.2 96.24 80.76 98.52 76.44 99.8ZM45.96 92.84H59.4C62.76 92.84 65.32 92.12 67.08 90.68C68.92 89.16 69.84 86.96 69.84 84.08C69.84 81.2 68.92 79 67.08 77.48C65.32 75.96 62.76 75.2 59.4 75.2H45.96V92.84ZM61.08 126.44C64.52 126.44 67.16 125.68 69 124.16C70.92 122.56 71.88 120.28 71.88 117.32C71.88 114.36 70.88 112.04 68.88 110.36C66.96 108.68 64.28 107.84 60.84 107.84H45.96V126.44H61.08ZM125.062 85.52C126.982 82.4 129.742 79.88 133.342 77.96C136.942 76.04 141.062 75.08 145.702 75.08C151.222 75.08 156.222 76.48 160.702 79.28C165.182 82.08 168.702 86.08 171.262 91.28C173.902 96.48 175.222 102.52 175.222 109.4C175.222 116.28 173.902 122.36 171.262 127.64C168.702 132.84 165.182 136.88 160.702 139.76C156.222 142.56 151.222 143.96 145.702 143.96C140.982 143.96 136.862 143.04 133.342 141.2C129.822 139.28 127.062 136.76 125.062 133.64V143H104.542V54.2H125.062V85.52ZM154.342 109.4C154.342 104.28 152.902 100.28 150.022 97.4C147.222 94.44 143.742 92.96 139.582 92.96C135.502 92.96 132.022 94.44 129.142 97.4C126.342 100.36 124.942 104.4 124.942 109.52C124.942 114.64 126.342 118.68 129.142 121.64C132.022 124.6 135.502 126.08 139.582 126.08C143.662 126.08 147.142 124.6 150.022 121.64C152.902 118.6 154.342 114.52 154.342 109.4Z" fill="#F15BB5"/>
</svg>
