<svg width="45" height="37" viewBox="0 0 45 37" fill="none" xmlns="http://www.w3.org/2000/svg">
<g filter="url(#filter0_i_116_1063)">
<path fill-rule="evenodd" clip-rule="evenodd" d="M13.9969 1.64325C16.1963 1.56 16.8975 1.5415 22.5 1.5415C28.1025 1.5415 28.8038 1.56155 31.0013 1.64325C33.1988 1.72496 34.6987 2.01325 36.0112 2.43105C37.3856 2.85809 38.6325 3.52563 39.6637 4.38896C40.7137 5.23534 41.5238 6.259 42.0413 7.39059C42.5513 8.46975 42.9 9.70309 43.0013 11.5068C43.1025 13.3183 43.125 13.8949 43.125 18.4998C43.125 23.1063 43.1006 23.6829 43.0013 25.4913C42.9019 27.295 42.5513 28.5284 42.0413 29.6075C41.5237 30.7393 40.7124 31.7646 39.6637 32.6122C38.6325 33.4756 37.3856 34.1416 36.0112 34.5671C34.6987 34.9864 33.1987 35.2732 31.005 35.3564C28.8037 35.4397 28.1025 35.4582 22.5 35.4582C16.8975 35.4582 16.1963 35.4381 13.9969 35.3564C11.8031 35.2747 10.3031 34.9864 8.99063 34.5671C7.61423 34.1415 6.36716 33.4744 5.33625 32.6122C4.28696 31.7654 3.47497 30.7405 2.95688 29.6091C2.44875 28.5299 2.1 27.2966 1.99875 25.4928C1.8975 23.6814 1.875 23.1048 1.875 18.4998C1.875 13.8933 1.89937 13.3168 1.99875 11.5099C2.09812 9.70309 2.44875 8.46975 2.95688 7.39059C3.47573 6.25913 4.28835 5.23428 5.33812 4.38742C6.36758 3.52486 7.61339 2.85723 8.98875 2.43105C10.3013 2.01325 11.8013 1.7265 13.995 1.64325H13.9969ZM30.8344 4.69575C28.6594 4.61405 28.0069 4.59709 22.5 4.59709C16.9931 4.59709 16.3406 4.61405 14.1656 4.69575C12.1537 4.7713 11.0625 5.04725 10.335 5.28005C9.37313 5.58838 8.685 5.95375 7.96313 6.5473C7.27883 7.09467 6.75221 7.76102 6.42187 8.4975C6.13875 9.09567 5.80313 9.99292 5.71125 11.6471C5.61188 13.4355 5.59125 13.972 5.59125 18.4998C5.59125 23.0277 5.61188 23.5642 5.71125 25.3525C5.80313 27.0068 6.13875 27.904 6.42187 28.5022C6.75187 29.2375 7.27875 29.9051 7.96313 30.4524C8.62875 31.0151 9.44063 31.4483 10.335 31.7196C11.0625 31.9524 12.1537 32.2284 14.1656 32.3039C16.3406 32.3856 16.9913 32.4026 22.5 32.4026C28.0087 32.4026 28.6594 32.3856 30.8344 32.3039C32.8462 32.2284 33.9375 31.9524 34.665 31.7196C35.6269 31.4113 36.315 31.0459 37.0369 30.4524C37.7213 29.9051 38.2481 29.2375 38.5781 28.5022C38.8613 27.904 39.1969 27.0068 39.2888 25.3525C39.3881 23.5642 39.4087 23.0277 39.4087 18.4998C39.4087 13.972 39.3881 13.4355 39.2888 11.6471C39.1969 9.99292 38.8613 9.09567 38.5781 8.4975C38.2031 7.70663 37.7588 7.14084 37.0369 6.5473C36.3711 5.9847 35.5607 5.5517 34.665 5.28005C33.9375 5.04725 32.8462 4.7713 30.8344 4.69575V4.69575ZM19.8656 23.7276C21.3369 24.2312 22.9751 24.2991 24.5005 23.9199C26.0259 23.5407 27.3439 22.7377 28.2293 21.6483C29.1147 20.5588 29.5126 19.2504 29.3551 17.9465C29.1976 16.6426 28.4944 15.4242 27.3656 14.4992C26.6461 13.9079 25.776 13.4552 24.8181 13.1736C23.8602 12.892 22.8383 12.7885 21.8259 12.8706C20.8136 12.9527 19.8359 13.2184 18.9634 13.6484C18.0909 14.0785 17.3451 14.6622 16.7799 15.3577C16.2147 16.0531 15.8441 16.843 15.6947 17.6704C15.5453 18.4977 15.6209 19.342 15.916 20.1425C16.2111 20.943 16.7184 21.6797 17.4014 22.2996C18.0843 22.9195 18.9259 23.4072 19.8656 23.7276ZM15.0037 12.3363C15.9882 11.5268 17.1568 10.8848 18.4431 10.4467C19.7293 10.0087 21.1078 9.78321 22.5 9.78321C23.8922 9.78321 25.2707 10.0087 26.5569 10.4467C27.8432 10.8848 29.0118 11.5268 29.9963 12.3363C30.9807 13.1457 31.7616 14.1066 32.2943 15.1641C32.8271 16.2217 33.1013 17.3552 33.1013 18.4998C33.1013 19.6445 32.8271 20.778 32.2943 21.8355C31.7616 22.8931 30.9807 23.854 29.9963 24.6634C28.0081 26.2981 25.3116 27.2165 22.5 27.2165C19.6884 27.2165 16.9919 26.2981 15.0037 24.6634C13.0156 23.0287 11.8987 20.8116 11.8987 18.4998C11.8987 16.188 13.0156 13.9709 15.0037 12.3363V12.3363ZM35.4525 11.0813C35.6964 10.8921 35.8917 10.6646 36.0268 10.4122C36.1619 10.1598 36.234 9.88773 36.2389 9.61202C36.2438 9.33631 36.1814 9.0626 36.0553 8.80709C35.9292 8.55157 35.7421 8.31946 35.5049 8.12448C35.2678 7.9295 34.9855 7.77563 34.6747 7.67197C34.364 7.56831 34.0311 7.51697 33.6958 7.52099C33.3604 7.525 33.0295 7.5843 32.7225 7.69537C32.4156 7.80643 32.1389 7.96701 31.9087 8.16759C31.4612 8.55767 31.2162 9.07582 31.2257 9.61202C31.2352 10.1482 31.4985 10.6603 31.9597 11.0395C32.4209 11.4187 33.0436 11.6351 33.6958 11.643C34.3479 11.6508 34.9781 11.4493 35.4525 11.0813V11.0813Z" fill="white"/>
</g>
<defs>
<filter id="filter0_i_116_1063" x="0" y="0" width="45" height="41" filterUnits="userSpaceOnUse" color-interpolation-filters="sRGB">
<feFlood flood-opacity="0" result="BackgroundImageFix"/>
<feBlend mode="normal" in="SourceGraphic" in2="BackgroundImageFix" result="shape"/>
<feColorMatrix in="SourceAlpha" type="matrix" values="0 0 0 0 0 0 0 0 0 0 0 0 0 0 0 0 0 0 127 0" result="hardAlpha"/>
<feOffset dy="4"/>
<feGaussianBlur stdDeviation="7.5"/>
<feComposite in2="hardAlpha" operator="arithmetic" k2="-1" k3="1"/>
<feColorMatrix type="matrix" values="0 0 0 0 0 0 0 0 0 0 0 0 0 0 0 0 0 0 0.2 0"/>
<feBlend mode="normal" in2="shape" result="effect1_innerShadow_116_1063"/>
</filter>
</defs>
</svg>
