<svg width="47" height="40" viewBox="0 0 47 40" fill="none" xmlns="http://www.w3.org/2000/svg">
<g clip-path="url(#clip0_116_1070)" filter="url(#filter0_i_116_1070)">
<path d="M46.2241 8.2283C44.6071 8.84497 42.8699 9.26163 41.0437 9.44997C42.928 8.47962 44.3378 6.95241 45.0099 5.1533C43.2395 6.05828 41.3019 6.69529 39.2813 7.03663C37.9225 5.78807 36.1228 4.96051 34.1615 4.68242C32.2002 4.40434 30.1871 4.69128 28.4347 5.49872C26.6823 6.30616 25.2887 7.5889 24.4703 9.14781C23.6518 10.7067 23.4543 12.4545 23.9083 14.12C20.3211 13.965 16.8118 13.1625 13.6082 11.7648C10.4046 10.3671 7.57834 8.40523 5.31279 6.00663C4.53814 7.15663 4.09271 8.48997 4.09271 9.90997C4.09185 11.1883 4.45764 12.447 5.15763 13.5745C5.85761 14.702 6.87016 15.6634 8.10542 16.3733C6.67284 16.3341 5.27188 16.0009 4.01912 15.4016V15.5016C4.01898 17.2945 4.73961 19.0323 6.05875 20.42C7.37789 21.8077 9.21428 22.7598 11.2563 23.115C9.92737 23.4245 8.53406 23.4701 7.18164 23.2483C7.75778 24.791 8.88006 26.14 10.3914 27.1065C11.9026 28.073 13.7273 28.6086 15.6099 28.6383C12.4141 30.7973 8.46735 31.9684 4.40451 31.9633C3.68482 31.9635 2.96574 31.9273 2.25098 31.855C6.37499 34.1369 11.1756 35.348 16.0785 35.3433C32.6755 35.3433 41.7486 23.5133 41.7486 13.2533C41.7486 12.92 41.7389 12.5833 41.7215 12.25C43.4863 11.1516 45.0097 9.79146 46.2203 8.2333L46.2241 8.2283Z" fill="white"/>
</g>
<defs>
<filter id="filter0_i_116_1070" x="0.436279" y="0" width="46.4792" height="44" filterUnits="userSpaceOnUse" color-interpolation-filters="sRGB">
<feFlood flood-opacity="0" result="BackgroundImageFix"/>
<feBlend mode="normal" in="SourceGraphic" in2="BackgroundImageFix" result="shape"/>
<feColorMatrix in="SourceAlpha" type="matrix" values="0 0 0 0 0 0 0 0 0 0 0 0 0 0 0 0 0 0 127 0" result="hardAlpha"/>
<feOffset dy="4"/>
<feGaussianBlur stdDeviation="7.5"/>
<feComposite in2="hardAlpha" operator="arithmetic" k2="-1" k3="1"/>
<feColorMatrix type="matrix" values="0 0 0 0 0 0 0 0 0 0 0 0 0 0 0 0 0 0 0.2 0"/>
<feBlend mode="normal" in2="shape" result="effect1_innerShadow_116_1070"/>
</filter>
<clipPath id="clip0_116_1070">
<rect width="46.4792" height="40" fill="white" transform="translate(0.436279)"/>
</clipPath>
</defs>
</svg>
