<svg width="39" height="37" viewBox="0 0 39 37" fill="none" xmlns="http://www.w3.org/2000/svg">
<g filter="url(#filter0_i_116_1081)">
<path fill-rule="evenodd" clip-rule="evenodd" d="M2.20264 4.37509C2.20264 3.62358 2.51244 2.90285 3.06388 2.37145C3.61533 1.84005 4.36325 1.54151 5.14312 1.54151H34.4551C34.8416 1.5409 35.2244 1.61375 35.5816 1.7559C35.9389 1.89805 36.2635 2.1067 36.5369 2.3699C36.8103 2.6331 37.0272 2.94569 37.1751 3.28977C37.323 3.63385 37.399 4.00266 37.3988 4.37509V32.6215C37.3992 32.994 37.3234 33.3629 37.1758 33.7072C37.0281 34.0514 36.8114 34.3642 36.5381 34.6277C36.2649 34.8912 35.9404 35.1001 35.5832 35.2426C35.2261 35.3851 34.8433 35.4584 34.4567 35.4582H5.14312C4.75683 35.4582 4.37434 35.3848 4.01748 35.2423C3.66062 35.0998 3.33639 34.891 3.06332 34.6277C2.79025 34.3644 2.57369 34.0519 2.42601 33.7079C2.27833 33.3639 2.20243 32.9953 2.20264 32.623V4.37509ZM16.1339 14.473H20.8998V16.7793C21.5877 15.4535 23.3475 14.2603 25.9921 14.2603C31.0619 14.2603 32.2634 16.9011 32.2634 21.7466V30.7222H27.1327V22.8504C27.1327 20.0908 26.4448 18.5338 24.6978 18.5338C22.2741 18.5338 21.2662 20.2126 21.2662 22.8504V30.7222H16.1339V14.473ZM7.33488 30.511H12.4671V14.2603H7.33488V30.5094V30.511ZM13.2014 8.96001C13.2111 9.38346 13.1329 9.80451 12.9715 10.1985C12.81 10.5924 12.5685 10.9513 12.2611 11.2541C11.9538 11.5568 11.5867 11.7974 11.1816 11.9616C10.7764 12.1259 10.3413 12.2105 9.9018 12.2105C9.46227 12.2105 9.02716 12.1259 8.62201 11.9616C8.21687 11.7974 7.84985 11.5568 7.54249 11.2541C7.23513 10.9513 6.99363 10.5924 6.83215 10.1985C6.67068 9.80451 6.59248 9.38346 6.60216 8.96001C6.62115 8.12883 6.97714 7.33785 7.59387 6.75648C8.2106 6.17511 9.03905 5.84957 9.9018 5.84957C10.7646 5.84957 11.593 6.17511 12.2097 6.75648C12.8265 7.33785 13.1825 8.12883 13.2014 8.96001Z" fill="white"/>
</g>
<defs>
<filter id="filter0_i_116_1081" x="0.602783" y="0" width="38.3958" height="41" filterUnits="userSpaceOnUse" color-interpolation-filters="sRGB">
<feFlood flood-opacity="0" result="BackgroundImageFix"/>
<feBlend mode="normal" in="SourceGraphic" in2="BackgroundImageFix" result="shape"/>
<feColorMatrix in="SourceAlpha" type="matrix" values="0 0 0 0 0 0 0 0 0 0 0 0 0 0 0 0 0 0 127 0" result="hardAlpha"/>
<feOffset dy="4"/>
<feGaussianBlur stdDeviation="7.5"/>
<feComposite in2="hardAlpha" operator="arithmetic" k2="-1" k3="1"/>
<feColorMatrix type="matrix" values="0 0 0 0 0 0 0 0 0 0 0 0 0 0 0 0 0 0 0.2 0"/>
<feBlend mode="normal" in2="shape" result="effect1_innerShadow_116_1081"/>
</filter>
</defs>
</svg>
