<svg width="44" height="34" viewBox="0 0 44 34" fill="none" xmlns="http://www.w3.org/2000/svg">
<path fill-rule="evenodd" clip-rule="evenodd" d="M12.5037 0.0196949C11.3906 0.147527 10.3732 0.495567 9.38545 1.08634C5.45506 3.43721 2.30834 9.48603 1.21803 16.7864C1.02024 18.1107 0.910303 19.2449 0.842341 20.6619C0.794902 21.6512 0.820436 23.6361 0.890197 24.3791C1.18 27.4659 1.99169 29.8132 3.34759 31.4857C4.13779 32.4604 5.01825 33.1234 6.07648 33.5407C6.90069 33.8657 7.64433 34.0001 8.61744 34C10.4838 33.9998 11.8497 33.4349 13.2945 32.066C13.9691 31.4267 14.9998 30.1155 15.7587 28.9309C17.1043 26.8304 17.9764 25.1496 20.7724 19.2668L22.3114 16.0289L22.6459 16.6849C23.0797 17.5362 24.627 20.6107 25.5652 22.4857C27.9103 27.1724 29.2714 29.4588 30.7358 31.1715C32.1932 32.8759 33.5483 33.6924 35.3351 33.9429C35.8133 34.0099 36.7974 34.0186 37.2515 33.9598C38.4876 33.7999 39.5946 33.297 40.5081 32.4805C40.8162 32.2051 41.3901 31.5423 41.6441 31.1685C42.6868 29.6341 43.388 27.4339 43.6556 24.8572C43.8585 22.9038 43.8348 20.4436 43.5903 18.0869C42.8832 11.2709 40.3842 5.32467 36.9252 2.22777C34.8502 0.369876 32.4825 -0.362579 30.27 0.168948C27.9469 0.727058 25.6886 2.79062 23.2819 6.55445C23.107 6.82794 22.9464 7.07481 22.9249 7.103C22.8932 7.14466 22.8187 7.05557 22.5292 6.62919C19.3778 1.98836 16.5352 -0.0335875 13.2105 0.00064653C12.8836 0.00401256 12.5656 0.0125804 12.5037 0.0196949ZM32.3528 4.4879C33.4762 4.78599 34.4967 5.51821 35.4874 6.73706C36.1574 7.56139 36.6894 8.42887 37.2049 9.53798C38.5724 12.4797 39.3669 15.9551 39.6491 20.2289C39.7116 21.1762 39.7022 23.5432 39.6335 24.1496C39.3533 26.6218 38.5812 27.9887 37.2414 28.3846C36.8623 28.4966 36.149 28.5043 35.7733 28.4003C34.7781 28.1249 34.0776 27.427 32.8891 25.5266C32.0261 24.1468 30.1843 20.6951 28.1129 16.576C26.5385 13.445 26.0085 12.4283 25.215 11.0171L24.9928 10.622L25.3607 9.96519C27.235 6.61917 28.8482 4.90311 30.5245 4.47226C30.7866 4.40486 30.9133 4.39641 31.4695 4.40922C31.9113 4.41936 32.1871 4.44395 32.3528 4.4879ZM13.8206 5.6216C15.0794 5.82972 16.152 6.55774 17.4195 8.06446C18.1701 8.9568 18.8907 9.99293 19.75 11.4158L20.1122 12.0154L20.0064 12.2111C19.9482 12.3187 19.5348 13.078 19.0877 13.8985C17.9966 15.9008 17.0298 17.693 15.972 19.6743C14.8323 21.8091 14.5339 22.3521 13.8908 23.4611C12.0555 26.6263 10.9681 27.9156 9.7955 28.3167C8.90271 28.6221 7.98436 28.5095 7.26337 28.0063C6.99567 27.8194 6.55562 27.306 6.3542 26.9455C5.9111 26.1524 5.62316 25.0775 5.49768 23.748C5.44568 23.1971 5.4459 21.3724 5.49809 20.5923C5.85779 15.2138 7.41568 10.3163 9.6272 7.61177C10.6538 6.35635 11.6059 5.73452 12.7607 5.56526C12.9204 5.54185 13.536 5.57459 13.8206 5.6216Z" fill="white"/>
<path d="M26.9126 14.2284C21.4695 3.6918 17.8454 0 13.1697 0L13.1108 5.53601C16.1721 5.53601 18.5459 8.40919 23.7082 18.7567L24.0229 19.3867L26.9126 14.2284Z" fill="white"/>
</svg>
