<svg width="42" height="40" viewBox="0 0 42 40" fill="none" xmlns="http://www.w3.org/2000/svg">
<mask id="mask0_116_1073" style="mask-type:alpha" maskUnits="userSpaceOnUse" x="0" y="0" width="42" height="40">
<path d="M21.2904 0C9.85324 0 0.580811 8.94737 0.580811 19.9836C0.580811 28.4539 6.03518 35.6908 13.7395 38.602C13.552 37.023 13.3986 34.5888 13.8077 32.8618C14.1827 31.2993 16.228 22.9276 16.228 22.9276C16.228 22.9276 15.6144 21.727 15.6144 19.9671C15.6144 17.1875 17.2848 15.1151 19.3643 15.1151C21.137 15.1151 21.9892 16.398 21.9892 17.9276C21.9892 19.6382 20.8643 22.2039 20.2677 24.5888C19.7734 26.5789 21.3074 28.2072 23.3358 28.2072C27.0175 28.2072 29.8469 24.4572 29.8469 19.0625C29.8469 14.2763 26.2845 10.9375 21.1881 10.9375C15.2906 10.9375 11.8305 15.1974 11.8305 19.6053C11.8305 21.3158 12.5123 23.1579 13.3645 24.1612C13.5349 24.3586 13.552 24.5395 13.5009 24.7368C13.3475 25.3618 12.9895 26.727 12.9213 27.0066C12.8361 27.3684 12.6145 27.4507 12.2225 27.2697C9.63166 26.102 8.01239 22.4671 8.01239 19.523C8.01239 13.2237 12.7509 7.43421 21.6995 7.43421C28.8754 7.43421 34.4661 12.3684 34.4661 18.9803C34.4661 25.8717 29.9662 31.4145 23.7278 31.4145C21.6313 31.4145 19.6541 30.3618 18.9893 29.1118C18.9893 29.1118 17.9496 32.9276 17.6939 33.8651C17.2337 35.6086 15.9724 37.7796 15.1201 39.1118C17.0632 39.6875 19.1086 40 21.2563 40C32.6934 40 41.9659 31.0526 41.9659 20.0164C42 8.94737 32.7275 0 21.2904 0Z" fill="white"/>
</mask>
<g mask="url(#mask0_116_1073)">
<rect x="0.482178" y="-0.0810547" width="6.92549" height="40.0962" fill="white"/>
<rect x="7.40698" y="-0.0810547" width="6.92549" height="40.0962" fill="white"/>
<rect x="14.334" y="-0.0810547" width="6.92549" height="40.0962" fill="white"/>
<rect x="21.2588" y="-0.0810547" width="6.92549" height="40.0962" fill="white"/>
<rect x="28.1147" y="-0.0810547" width="6.92549" height="40.0962" fill="white"/>
<rect x="35.0396" y="-0.0810547" width="6.92549" height="40.0962" fill="white"/>
</g>
</svg>
